<?xml version="1.0" encoding="UTF-8"?>
<svg width="19px" height="16px" viewBox="0 0 19 16" version="1.1" xmlns="http://www.w3.org/2000/svg" xmlns:xlink="http://www.w3.org/1999/xlink">
    <!-- Generator: Sketch 52.5 (67469) - http://www.bohemiancoding.com/sketch -->
    <title>Shape</title>
    <desc>Created with Sketch.</desc>
    <g id="Page-1" stroke="none" stroke-width="1" fill="none" fill-rule="evenodd">
        <g id="Desktop-HD-Copy" transform="translate(-1255.000000, -431.000000)" fill-rule="nonzero" stroke="#858585" stroke-width="1.1">
            <path d="M1264.50165,446.419538 C1264.95519,446.072305 1265.86484,445.346569 1266.89902,444.479754 C1268.70674,442.964578 1270.4655,441.380144 1272.03808,439.805395 C1273.92064,437.920259 1273.92064,434.851271 1272.03802,432.966073 C1271.1256,432.052115 1269.91514,431.55 1268.62433,431.55 C1267.33404,431.55 1266.123,432.052279 1265.20894,432.96691 C1265.11081,433.064777 1265.01564,433.168924 1264.92319,433.279407 L1264.5022,433.782545 L1264.08024,433.280219 C1263.98776,433.170126 1263.89191,433.065346 1263.79281,432.966114 C1262.88024,432.052205 1261.66936,431.55 1260.37864,431.55 C1259.08797,431.55 1257.87731,432.052174 1256.96487,432.966155 C1256.05183,433.880346 1255.55,435.093201 1255.55,436.385873 C1255.55,437.678488 1256.05179,438.891143 1256.96488,439.805386 C1258.53742,441.38 1260.29605,442.964299 1262.10385,444.479599 C1262.73906,445.012035 1263.33577,445.498319 1263.87687,445.928688 C1264.15014,446.146044 1264.36702,446.315675 1264.50165,446.419538 Z M1264.57077,446.472611 C1264.57114,446.472895 1264.57151,446.473179 1264.57188,446.473461 C1264.57068,446.472549 1264.56945,446.471661 1264.56822,446.470798 Z" id="Shape"></path>
        </g>
    </g>
</svg>