<?xml version="1.0" encoding="utf-8"?>
<!-- Generator: Adobe Illustrator 23.0.6, SVG Export Plug-In . SVG Version: 6.00 Build 0)  -->
<svg version="1.1" id="Ebene_1" xmlns="http://www.w3.org/2000/svg" xmlns:xlink="http://www.w3.org/1999/xlink" x="0px" y="0px"
	 viewBox="0 0 88 24" style="enable-background:new 0 0 88 24;" xml:space="preserve">
<title>AY-C_Logo 3</title>
<desc>Created with Sketch.</desc>
<g id="Page-1">
	<g id="Desktop-HD-Copy" transform="translate(-156.000000, -32.000000)">
		<g id="Group-4" transform="translate(-31.000000, -73.000000)">
			<g id="AY-C_Logo-3" transform="translate(187.000000, 105.000000)">
				<path id="Shape" d="M9.9,0.2h4.7l9.9,23.2h-5.3L17,18.2H7.3l-2.1,5.2H0L9.9,0.2z M15.2,13.8l-3.1-7.5l-3,7.5H15.2z"/>
				<polygon id="Path" points="30.8,14.4 21.9,0.4 27.9,0.4 33.3,9.7 38.9,0.4 44.7,0.4 35.9,14.2 35.9,23.4 30.8,23.4 				"/>
				<path d="M66.8,12c0-6.6,4.9-12,12-12c4.3,0,6.9,1.5,9.1,3.6l-3.2,3.7c-1.7-1.6-3.6-2.6-5.9-2.6c-3.8,0-6.6,3.2-6.6,7.1v0.1
					c0,3.9,2.7,7.2,6.6,7.2c2.7,0,4.3-1.1,6-2.7l3.2,3.3c-2.4,2.5-5,4.1-9.4,4.1C71.8,23.8,66.8,18.6,66.8,12z"/>
				<polygon points="62.3,9.7 44.2,9.7 44.2,14.2 62.3,14.2 				"/>
			</g>
		</g>
	</g>
</g>
</svg>
