<?xml version="1.0" encoding="UTF-8"?>
<svg width="24px" height="19px" viewBox="0 0 24 19" version="1.1" xmlns="http://www.w3.org/2000/svg" xmlns:xlink="http://www.w3.org/1999/xlink">
    <!-- Generator: Sketch 52.5 (67469) - http://www.bohemiancoding.com/sketch -->
    <title>weather</title>
    <desc>Created with Sketch.</desc>
    <g id="Page-1" stroke="none" stroke-width="1" fill="none" fill-rule="evenodd">
        <g id="Desktop-HD-Copy" transform="translate(-1094.000000, -34.000000)">
            <g id="weather" transform="translate(1094.000000, 31.000000)">
                <rect id="Rectangle" x="0" y="0" width="24" height="24"></rect>
                <g id="Group-8" transform="translate(0.000000, 2.500000)">
                    <g id="noun_weather_1936057" transform="translate(13.500000, 11.400000) scale(-1, 1) translate(-13.500000, -11.400000) translate(4.000000, 4.400000)" stroke="#BBBBBB" stroke-width="1.27777778">
                        <g id="Group">
                            <path d="M12.9656924,5.96645161 C14.1429487,5.96645161 15.0585924,6.22967742 15.9088331,7.08516129 C17.413105,8.53290323 17.413105,10.9677419 15.9088331,12.4812903 C15.2548018,13.1393548 14.2737549,13.6 13.2273049,13.6 L3.80925459,13.6 C2.76280456,13.6 1.78175766,13.1393548 1.12772639,12.4812903 C-0.245739282,11.0993548 -0.376545537,8.99354839 0.80071075,7.48 C1.19312951,6.95354839 1.71635453,6.55870968 2.30498267,6.29548387 C2.10877329,4.71612903 2.69740143,3.33419355 3.80925459,2.28129032 C5.90215466,0.372903226 9.30311726,0.372903226 11.3960173,2.28129032 C12.4424674,3.20258065 13.0310955,4.58451613 12.9656924,5.96645161 Z" id="Shape" fill-rule="nonzero"></path>
                            <path d="M11.2465349,2.06284585 C11.9781868,1.14901186 13.0756646,0.55770751 14.2776642,0.55770751 C16.4726199,0.55770751 18.2494888,2.38537549 18.2494888,4.643083 C18.2494888,5.93320158 17.6223586,7.06205534 16.7339241,7.81462451" id="Path"></path>
                        </g>
                    </g>
                    <rect id="Rectangle" fill="#BBBBBB" x="8.30555556" y="0.75" width="1.27777778" height="2.55" rx="0.638888889"></rect>
                    <path d="M1.91666667,7.58472222 L1.91666667,7.58472222 C2.26874819,7.58472222 2.55416667,7.87014069 2.55416667,8.22222222 L2.55416667,9.50277778 C2.55416667,9.85485931 2.26874819,10.1402778 1.91666667,10.1402778 L1.91666667,10.1402778 C1.56458514,10.1402778 1.27916667,9.85485931 1.27916667,9.50277778 L1.27916667,8.22222222 C1.27916667,7.87014069 1.56458514,7.58472222 1.91666667,7.58472222 Z" id="Rectangle" fill="#BBBBBB" transform="translate(1.916667, 8.862500) rotate(90.000000) translate(-1.916667, -8.862500) "></path>
                    <path d="M3.6964917,2.56345283 L3.69718652,2.56345359 C4.04949204,2.56383694 4.33499648,2.84934138 4.33537983,3.2016469 L4.33676948,4.47873061 C4.33715218,4.83042944 4.05235418,5.11584791 3.70065535,5.11623061 C3.70019339,5.11623111 3.69973144,5.11623111 3.69926948,5.11623061 L3.69857466,5.11622985 C3.34626914,5.11584649 3.0607647,4.83034206 3.06038135,4.47803654 L3.0589917,3.20095283 C3.058609,2.849254 3.343407,2.56383553 3.69510583,2.56345283 C3.69556779,2.56345233 3.69602974,2.56345233 3.6964917,2.56345283 Z" id="Rectangle" fill="#BBBBBB" transform="translate(3.697881, 3.839842) rotate(135.000000) translate(-3.697881, -3.839842) "></path>
                </g>
            </g>
        </g>
    </g>
</svg>