<?xml version="1.0" encoding="utf-8"?>
<!-- Generator: Adobe Illustrator 23.0.6, SVG Export Plug-In . SVG Version: 6.00 Build 0)  -->
<svg version="1.1" id="Ebene_1" xmlns="http://www.w3.org/2000/svg" xmlns:xlink="http://www.w3.org/1999/xlink" x="0px" y="0px"
	 viewBox="0 0 24 19" style="enable-background:new 0 0 24 19;" xml:space="preserve">
<style type="text/css">
	.st0{fill:none;}
	.st1{fill:none;stroke:#BBBBBB;stroke-width:1.2778;}
	.st2{fill-rule:evenodd;clip-rule:evenodd;fill:#BBBBBB;}
</style>
<title>weather</title>
<desc>Created with Sketch.</desc>
<g id="Page-1">
	<g id="Desktop-HD-Copy" transform="translate(-1094.000000, -34.000000)">
		<g id="weather" transform="translate(1094.000000, 31.000000)">
			<rect id="Rectangle" y="0" class="st0" width="24" height="24"/>
			<g id="Group-8" transform="translate(0.000000, 2.500000)">
				
					<g id="noun_weather_1936057" transform="translate(13.500000, 11.400000) scale(-1, 1) translate(-13.500000, -11.400000) translate(4.000000, 4.400000)">
					<g id="Group">
						<path id="Shape" class="st1" d="M13,6c1.2,0,2.1,0.3,2.9,1.1c1.5,1.4,1.5,3.9,0,5.4c-0.7,0.7-1.6,1.1-2.7,1.1H3.8
							c-1,0-2-0.5-2.7-1.1c-1.4-1.4-1.5-3.5-0.3-5C1.2,7,1.7,6.6,2.3,6.3c-0.2-1.6,0.4-3,1.5-4c2.1-1.9,5.5-1.9,7.6,0
							C12.4,3.2,13,4.6,13,6z"/>
						<path id="Path" class="st1" d="M11.2,2.1c0.7-0.9,1.8-1.5,3-1.5c2.2,0,4,1.8,4,4.1c0,1.3-0.6,2.4-1.5,3.2"/>
					</g>
				</g>
				<path class="st2" d="M8.9,0.7L8.9,0.7c0.4,0,0.6,0.3,0.6,0.6v1.3c0,0.4-0.3,0.6-0.6,0.6h0C8.6,3.3,8.3,3,8.3,2.7V1.4
					C8.3,1,8.6,0.7,8.9,0.7z"/>
				<path class="st2" d="M3.2,8.9L3.2,8.9c0,0.4-0.3,0.6-0.6,0.6H1.3c-0.4,0-0.6-0.3-0.6-0.6l0,0c0-0.4,0.3-0.6,0.6-0.6h1.3
					C2.9,8.2,3.2,8.5,3.2,8.9z"/>
				<path class="st2" d="M4.6,4.7L4.6,4.7C4.4,5,3.9,5,3.7,4.7L2.8,3.8c-0.2-0.2-0.2-0.7,0-0.9c0,0,0,0,0,0l0,0
					c0.2-0.2,0.7-0.2,0.9,0l0.9,0.9C4.9,4.1,4.9,4.5,4.6,4.7C4.6,4.7,4.6,4.7,4.6,4.7z"/>
			</g>
		</g>
	</g>
</g>
</svg>
